<?xml version="1.0" standalone="no"?>
<!DOCTYPE svg PUBLIC "-//W3C//DTD SVG 20010904//EN"
 "http://www.w3.org/TR/2001/REC-SVG-20010904/DTD/svg10.dtd">
<svg version="1.0" xmlns="http://www.w3.org/2000/svg"
 width="300.000000pt" height="92.000000pt" viewBox="0 0 300.000000 92.000000"
 preserveAspectRatio="xMidYMid meet">
<metadata>
Created by potrace 1.10, written by Peter Selinger 2001-2011
</metadata>
<g transform="translate(0.000000,92.000000) scale(0.100000,-0.100000)"
fill="#ffffff" stroke="none">
<path d="M2485 914 c-11 -3 -30 -7 -42 -10 -33 -7 -91 -61 -115 -107 -16 -32
-19 -54 -16 -101 4 -52 19 -90 103 -263 54 -112 101 -203 105 -203 4 0 51 91
105 203 85 174 99 211 103 264 4 53 0 68 -24 113 -19 34 -41 59 -68 75 -41 23
-113 37 -151 29z m88 -25 c84 -23 146 -116 133 -201 -6 -39 -174 -417 -186
-417 -11 0 -176 363 -184 406 -16 84 28 168 109 204 46 21 75 23 128 8z"/>
<path d="M2454 811 c-64 -39 -72 -142 -14 -193 24 -22 40 -28 78 -28 74 0 122
48 122 122 -1 93 -105 148 -186 99z m139 -41 c32 -36 35 -72 7 -117 -35 -57
-125 -58 -160 0 -26 42 -25 78 1 111 43 54 105 57 152 6z"/>
<path d="M2105 445 c-3 -16 -16 -106 -30 -200 -14 -93 -27 -185 -30 -203 l-6
-32 479 0 479 0 -18 133 c-30 218 -46 317 -53 324 -3 4 -60 7 -126 7 -87 1
-121 -2 -125 -11 -3 -10 23 -13 114 -13 l119 0 6 -37 c4 -21 9 -46 12 -55 5
-17 -7 -18 -155 -18 -113 0 -161 -3 -161 -11 0 -7 52 -76 115 -155 63 -79 115
-145 115 -146 0 -2 -81 -2 -180 0 l-180 3 -74 92 -74 92 36 30 c20 17 45 37
56 46 12 10 16 21 11 28 -4 7 -10 9 -14 4 -3 -4 -28 -27 -54 -50 l-49 -42 -60
77 c-33 42 -74 92 -91 110 l-31 32 117 0 c89 0 115 3 112 13 -4 9 -39 12 -130
12 l-125 0 -5 -30z m185 -212 c85 -108 156 -199 158 -202 1 -3 -85 -5 -191 -3
l-194 3 13 67 c7 37 21 127 30 200 10 72 20 132 23 131 3 0 76 -89 161 -196z
m644 60 c3 -16 8 -46 11 -68 l6 -40 -107 5 -106 5 -50 63 -50 62 145 0 145 0
6 -27z m26 -152 c0 -10 3 -39 6 -65 l7 -46 -54 0 c-52 1 -55 2 -89 47 -71 93
-75 83 34 83 87 0 96 -2 96 -19z"/>
<path d="M437 453 c-12 -12 -7 -43 7 -43 13 0 26 20 26 41 0 10 -23 12 -33 2z"/>
<path d="M1417 438 c-7 -27 -3 -32 18 -25 19 8 20 47 1 47 -7 0 -16 -10 -19
-22z"/>
<path d="M1490 299 c-22 -109 -30 -163 -23 -170 14 -14 75 -7 81 10 3 9 -1 11
-15 7 -40 -13 -42 13 -8 167 28 131 30 147 15 147 -13 0 -23 -31 -50 -161z"/>
<path d="M10 435 c0 -12 13 -15 61 -15 33 0 58 -4 55 -8 -3 -5 -17 -62 -31
-128 -14 -65 -27 -129 -30 -141 -4 -17 -1 -23 12 -23 15 0 23 24 48 150 l29
150 63 0 c49 0 63 3 63 15 0 13 -22 15 -135 15 -113 0 -135 -2 -135 -15z"/>
<path d="M900 435 c0 -12 13 -15 59 -15 l58 0 -27 -127 c-15 -71 -30 -138 -34
-150 -6 -18 -4 -23 11 -23 16 0 23 21 47 138 16 75 31 143 34 150 3 8 25 12
63 12 46 0 59 3 59 15 0 13 -22 15 -135 15 -113 0 -135 -2 -135 -15z"/>
<path d="M606 360 c-15 -5 -37 -17 -49 -27 -20 -18 -20 -17 -15 5 7 27 -18 31
-26 5 -8 -29 -66 -303 -66 -313 0 -6 6 -10 14 -10 14 0 36 75 36 120 0 26 8
25 30 -2 13 -17 29 -23 59 -23 126 0 195 195 85 241 -19 8 -35 14 -36 13 -2 0
-16 -5 -32 -9z m69 -45 c14 -13 25 -36 25 -50 0 -87 -104 -156 -157 -105 -42
38 -21 131 37 161 46 25 66 24 95 -6z"/>
<path d="M1185 355 c-22 -8 -41 -15 -42 -15 -2 0 -3 -7 -3 -15 0 -14 3 -14 30
0 35 18 81 20 98 3 7 -7 12 -26 12 -43 l0 -32 -53 5 c-84 7 -137 -29 -137 -92
0 -37 39 -60 89 -51 22 4 45 13 52 21 15 18 29 18 29 0 0 -17 27 -29 35 -15 4
5 4 17 0 28 -3 10 1 47 8 82 17 80 8 113 -35 128 -37 13 -34 13 -83 -4z m73
-124 c20 -12 5 -55 -28 -74 -35 -21 -83 -22 -100 -2 -17 20 -5 60 22 73 28 13
88 15 106 3z"/>
<path d="M1696 360 c-40 -12 -75 -48 -98 -98 -36 -80 5 -148 88 -146 129 3
198 187 89 238 -37 18 -38 18 -79 6z m75 -39 c49 -39 23 -135 -45 -168 -93
-44 -148 64 -74 145 42 44 83 52 119 23z"/>
<path d="M1995 356 c-17 -7 -36 -20 -44 -29 -20 -25 -32 -20 -21 8 8 21 7 25
-9 25 -15 0 -21 -10 -26 -50 -4 -27 -15 -81 -24 -120 -17 -66 -17 -70 -1 -70
13 0 21 18 34 80 14 65 23 84 48 105 16 14 38 25 49 25 11 0 22 7 26 15 8 23
2 25 -32 11z"/>
<path d="M230 253 c-12 -60 -25 -114 -27 -120 -3 -8 3 -13 14 -13 17 0 22 12
33 72 10 59 19 79 45 105 18 18 42 33 53 33 11 0 23 7 26 16 5 14 1 16 -26 10
-18 -3 -43 -16 -56 -29 l-24 -22 7 28 c5 20 3 27 -7 27 -10 0 -21 -31 -38
-107z"/>
<path d="M397 267 c-10 -50 -21 -104 -24 -119 -4 -21 -2 -28 11 -28 9 0 16 2
16 5 0 8 40 197 46 218 4 12 0 17 -13 17 -15 0 -21 -16 -36 -93z"/>
<path d="M1400 357 c0 -3 -36 -173 -45 -214 -6 -28 21 -32 29 -5 7 24 46 204
46 214 0 4 -7 8 -15 8 -8 0 -15 -1 -15 -3z"/>
</g>
</svg>
